<mxfile host="app.diagrams.net" agent="Mozilla/5.0 (Windows NT 10.0; Win64; x64) AppleWebKit/537.36 (KHTML, like Gecko) Chrome/127.0.0.0 Safari/537.36" version="24.7.7">
  <diagram id="prtHgNgQTEPvFCAcTncT" name="Page-1">
    <mxGraphModel dx="1140" dy="762" grid="1" gridSize="10" guides="1" tooltips="1" connect="1" arrows="1" fold="1" page="1" pageScale="1" pageWidth="827" pageHeight="1169" math="0" shadow="0">
      <root>
        <mxCell id="0" />
        <mxCell id="1" parent="0" />
        <mxCell id="8J4eURQ9qsnAdOyGuVqm-24" value="" style="ellipse;whiteSpace=wrap;html=1;" parent="1" vertex="1">
          <mxGeometry x="255" y="795" width="170" height="135" as="geometry" />
        </mxCell>
        <mxCell id="ddsroKh8XXSdmjw14_AX-2" style="edgeStyle=orthogonalEdgeStyle;rounded=0;orthogonalLoop=1;jettySize=auto;html=1;entryX=0.5;entryY=1;entryDx=0;entryDy=0;" edge="1" parent="1" source="8J4eURQ9qsnAdOyGuVqm-12" target="8J4eURQ9qsnAdOyGuVqm-14">
          <mxGeometry relative="1" as="geometry" />
        </mxCell>
        <mxCell id="ddsroKh8XXSdmjw14_AX-24" style="edgeStyle=orthogonalEdgeStyle;rounded=0;orthogonalLoop=1;jettySize=auto;html=1;entryX=0;entryY=0.5;entryDx=0;entryDy=0;" edge="1" parent="1" source="8J4eURQ9qsnAdOyGuVqm-12" target="ddsroKh8XXSdmjw14_AX-21">
          <mxGeometry relative="1" as="geometry" />
        </mxCell>
        <mxCell id="8J4eURQ9qsnAdOyGuVqm-12" value="" style="whiteSpace=wrap;html=1;" parent="1" vertex="1">
          <mxGeometry x="390" y="270" width="240" height="320" as="geometry" />
        </mxCell>
        <mxCell id="8J4eURQ9qsnAdOyGuVqm-2" value="&lt;span style=&quot;text-align: left;&quot;&gt;1. 项目微服务化，通过证书控制产品&lt;/span&gt;&lt;div&gt;&lt;div style=&quot;text-align: left;&quot;&gt;&lt;br&gt;&lt;/div&gt;&lt;div style=&quot;text-align: left;&quot;&gt;2. 微服务化后高可用&lt;span style=&quot;text-align: left;&quot;&gt;&lt;br&gt;&lt;/span&gt;&lt;/div&gt;&lt;/div&gt;" style="text;html=1;align=center;verticalAlign=middle;whiteSpace=wrap;rounded=0;" parent="1" vertex="1">
          <mxGeometry x="50" y="100" width="240" height="60" as="geometry" />
        </mxCell>
        <mxCell id="8J4eURQ9qsnAdOyGuVqm-7" value="&lt;span style=&quot;color: rgb(51, 51, 51); font-family: &amp;quot;Open Sans&amp;quot;, &amp;quot;Clear Sans&amp;quot;, &amp;quot;Helvetica Neue&amp;quot;, Helvetica, Arial, &amp;quot;Segoe UI Emoji&amp;quot;, sans-serif; font-size: 16px; orphans: 4; text-align: start; white-space-collapse: preserve; background-color: rgb(255, 255, 255);&quot;&gt;日审服务&lt;/span&gt;" style="rounded=0;whiteSpace=wrap;html=1;" parent="1" vertex="1">
          <mxGeometry x="440" y="290" width="140" height="40" as="geometry" />
        </mxCell>
        <mxCell id="8J4eURQ9qsnAdOyGuVqm-8" value="&lt;span style=&quot;color: rgb(51, 51, 51); font-family: &amp;quot;Open Sans&amp;quot;, &amp;quot;Clear Sans&amp;quot;, &amp;quot;Helvetica Neue&amp;quot;, Helvetica, Arial, &amp;quot;Segoe UI Emoji&amp;quot;, sans-serif; font-size: 16px; orphans: 4; text-align: start; white-space-collapse: preserve; background-color: rgb(255, 255, 255);&quot;&gt;公共服务&lt;/span&gt;" style="rounded=0;whiteSpace=wrap;html=1;" parent="1" vertex="1">
          <mxGeometry x="440" y="450" width="140" height="40" as="geometry" />
        </mxCell>
        <mxCell id="8J4eURQ9qsnAdOyGuVqm-9" value="&lt;span style=&quot;color: rgb(51, 51, 51); font-family: &amp;quot;Open Sans&amp;quot;, &amp;quot;Clear Sans&amp;quot;, &amp;quot;Helvetica Neue&amp;quot;, Helvetica, Arial, &amp;quot;Segoe UI Emoji&amp;quot;, sans-serif; font-size: 16px; orphans: 4; text-align: start; white-space-collapse: preserve; background-color: rgb(255, 255, 255);&quot;&gt;系统服务&lt;/span&gt;" style="rounded=0;whiteSpace=wrap;html=1;" parent="1" vertex="1">
          <mxGeometry x="440" y="370" width="140" height="40" as="geometry" />
        </mxCell>
        <mxCell id="8J4eURQ9qsnAdOyGuVqm-10" value="&lt;div style=&quot;orphans: 4; text-align: start;&quot;&gt;&lt;font face=&quot;Open Sans, Clear Sans, Helvetica Neue, Helvetica, Arial, Segoe UI Emoji, sans-serif&quot; color=&quot;#333333&quot;&gt;&lt;span style=&quot;font-size: 16px; white-space-collapse: preserve; background-color: rgb(255, 255, 255);&quot;&gt;其他服务&lt;/span&gt;&lt;/font&gt;&lt;/div&gt;" style="rounded=0;whiteSpace=wrap;html=1;" parent="1" vertex="1">
          <mxGeometry x="440" y="530" width="140" height="40" as="geometry" />
        </mxCell>
        <mxCell id="8J4eURQ9qsnAdOyGuVqm-14" value="nacos&lt;div&gt;注册中心&lt;/div&gt;" style="ellipse;whiteSpace=wrap;html=1;" parent="1" vertex="1">
          <mxGeometry x="460" y="130" width="100" height="70" as="geometry" />
        </mxCell>
        <mxCell id="8J4eURQ9qsnAdOyGuVqm-17" value="&lt;div&gt;注册发现&lt;/div&gt;将各个服务注册到nacos" style="text;html=1;align=center;verticalAlign=middle;resizable=0;points=[];autosize=1;strokeColor=none;fillColor=none;" parent="1" vertex="1">
          <mxGeometry x="320" y="220" width="150" height="40" as="geometry" />
        </mxCell>
        <mxCell id="8J4eURQ9qsnAdOyGuVqm-29" style="edgeStyle=orthogonalEdgeStyle;rounded=0;orthogonalLoop=1;jettySize=auto;html=1;dashed=1;" parent="1" source="8J4eURQ9qsnAdOyGuVqm-18" edge="1">
          <mxGeometry relative="1" as="geometry">
            <mxPoint x="600" y="880" as="targetPoint" />
          </mxGeometry>
        </mxCell>
        <mxCell id="8J4eURQ9qsnAdOyGuVqm-18" value="&lt;span style=&quot;color: rgb(51, 51, 51); font-family: &amp;quot;Open Sans&amp;quot;, &amp;quot;Clear Sans&amp;quot;, &amp;quot;Helvetica Neue&amp;quot;, Helvetica, Arial, &amp;quot;Segoe UI Emoji&amp;quot;, sans-serif; font-size: 16px; orphans: 4; text-align: start; white-space-collapse: preserve; background-color: rgb(255, 255, 255);&quot;&gt;公共服务&lt;/span&gt;" style="rounded=0;whiteSpace=wrap;html=1;" parent="1" vertex="1">
          <mxGeometry x="285" y="860" width="110" height="40" as="geometry" />
        </mxCell>
        <mxCell id="8J4eURQ9qsnAdOyGuVqm-19" value="&lt;font style=&quot;font-size: 15px;&quot;&gt;需求： 通过证书控制产品&lt;/font&gt;" style="text;html=1;align=center;verticalAlign=middle;resizable=0;points=[];autosize=1;strokeColor=none;fillColor=none;" parent="1" vertex="1">
          <mxGeometry x="60" y="700" width="190" height="30" as="geometry" />
        </mxCell>
        <mxCell id="8J4eURQ9qsnAdOyGuVqm-20" value="&lt;font style=&quot;font-size: 16px;&quot;&gt;解决方法： 证书注册后，将产品类型存储下来，根据这些类型去数据库查询&lt;/font&gt;" style="text;html=1;align=center;verticalAlign=middle;resizable=0;points=[];autosize=1;strokeColor=none;fillColor=none;" parent="1" vertex="1">
          <mxGeometry x="60" y="740" width="560" height="30" as="geometry" />
        </mxCell>
        <mxCell id="8J4eURQ9qsnAdOyGuVqm-27" style="edgeStyle=orthogonalEdgeStyle;rounded=0;orthogonalLoop=1;jettySize=auto;html=1;entryX=0;entryY=0.5;entryDx=0;entryDy=0;" parent="1" source="8J4eURQ9qsnAdOyGuVqm-23" target="8J4eURQ9qsnAdOyGuVqm-24" edge="1">
          <mxGeometry relative="1" as="geometry" />
        </mxCell>
        <mxCell id="8J4eURQ9qsnAdOyGuVqm-23" value="&lt;span style=&quot;color: rgb(51, 51, 51); font-family: &amp;quot;Open Sans&amp;quot;, &amp;quot;Clear Sans&amp;quot;, &amp;quot;Helvetica Neue&amp;quot;, Helvetica, Arial, &amp;quot;Segoe UI Emoji&amp;quot;, sans-serif; font-size: 16px; orphans: 4; text-align: start; white-space-collapse: preserve; background-color: rgb(255, 255, 255);&quot;&gt;客户端&lt;/span&gt;" style="rounded=0;whiteSpace=wrap;html=1;" parent="1" vertex="1">
          <mxGeometry x="20" y="842.5" width="120" height="40" as="geometry" />
        </mxCell>
        <mxCell id="8J4eURQ9qsnAdOyGuVqm-25" value="系统" style="text;html=1;align=center;verticalAlign=middle;whiteSpace=wrap;rounded=0;" parent="1" vertex="1">
          <mxGeometry x="310" y="820" width="60" height="30" as="geometry" />
        </mxCell>
        <mxCell id="8J4eURQ9qsnAdOyGuVqm-28" value="访问应用" style="text;html=1;align=center;verticalAlign=middle;resizable=0;points=[];autosize=1;strokeColor=none;fillColor=none;" parent="1" vertex="1">
          <mxGeometry x="160" y="820" width="70" height="30" as="geometry" />
        </mxCell>
        <mxCell id="8J4eURQ9qsnAdOyGuVqm-30" value="根据类别检索&lt;div&gt;对应的产品数据&lt;/div&gt;" style="text;html=1;align=center;verticalAlign=middle;resizable=0;points=[];autosize=1;strokeColor=none;fillColor=none;" parent="1" vertex="1">
          <mxGeometry x="440" y="830" width="110" height="40" as="geometry" />
        </mxCell>
        <mxCell id="8J4eURQ9qsnAdOyGuVqm-31" value="数据库" style="shape=cylinder3;whiteSpace=wrap;html=1;boundedLbl=1;backgroundOutline=1;size=15;" parent="1" vertex="1">
          <mxGeometry x="600" y="840" width="60" height="80" as="geometry" />
        </mxCell>
        <mxCell id="8J4eURQ9qsnAdOyGuVqm-32" value="我会将所有应用的&lt;div&gt;菜单数据等存入到里面&lt;/div&gt;" style="text;html=1;align=center;verticalAlign=middle;resizable=0;points=[];autosize=1;strokeColor=none;fillColor=none;" parent="1" vertex="1">
          <mxGeometry x="570" y="790" width="140" height="40" as="geometry" />
        </mxCell>
        <mxCell id="8J4eURQ9qsnAdOyGuVqm-34" value="高可用： 服务高可用&amp;nbsp; 数据库高可用&amp;nbsp; 数据一致性还有事务管理" style="text;html=1;align=center;verticalAlign=middle;resizable=0;points=[];autosize=1;strokeColor=none;fillColor=none;" parent="1" vertex="1">
          <mxGeometry x="40" y="990" width="350" height="30" as="geometry" />
        </mxCell>
        <mxCell id="ddsroKh8XXSdmjw14_AX-25" value="" style="edgeStyle=orthogonalEdgeStyle;rounded=0;orthogonalLoop=1;jettySize=auto;html=1;" edge="1" parent="1" source="ddsroKh8XXSdmjw14_AX-3" target="ddsroKh8XXSdmjw14_AX-4">
          <mxGeometry relative="1" as="geometry" />
        </mxCell>
        <mxCell id="ddsroKh8XXSdmjw14_AX-3" value="&lt;span style=&quot;color: rgb(51, 51, 51); font-family: &amp;quot;Open Sans&amp;quot;, &amp;quot;Clear Sans&amp;quot;, &amp;quot;Helvetica Neue&amp;quot;, Helvetica, Arial, &amp;quot;Segoe UI Emoji&amp;quot;, sans-serif; font-size: 16px; orphans: 4; text-align: start; white-space-collapse: preserve; background-color: rgb(255, 255, 255);&quot;&gt;客户端&lt;/span&gt;" style="rounded=0;whiteSpace=wrap;html=1;" vertex="1" parent="1">
          <mxGeometry x="20" y="410" width="120" height="40" as="geometry" />
        </mxCell>
        <mxCell id="ddsroKh8XXSdmjw14_AX-26" value="" style="edgeStyle=orthogonalEdgeStyle;rounded=0;orthogonalLoop=1;jettySize=auto;html=1;" edge="1" parent="1" source="ddsroKh8XXSdmjw14_AX-4" target="8J4eURQ9qsnAdOyGuVqm-12">
          <mxGeometry relative="1" as="geometry" />
        </mxCell>
        <mxCell id="ddsroKh8XXSdmjw14_AX-4" value="&lt;div style=&quot;orphans: 4; text-align: start;&quot;&gt;&lt;font face=&quot;Open Sans, Clear Sans, Helvetica Neue, Helvetica, Arial, Segoe UI Emoji, sans-serif&quot; color=&quot;#333333&quot;&gt;&lt;span style=&quot;font-size: 16px; white-space-collapse: preserve; background-color: rgb(255, 255, 255);&quot;&gt;网关gateway&lt;/span&gt;&lt;/font&gt;&lt;/div&gt;" style="rounded=0;whiteSpace=wrap;html=1;" vertex="1" parent="1">
          <mxGeometry x="200" y="410" width="120" height="40" as="geometry" />
        </mxCell>
        <mxCell id="ddsroKh8XXSdmjw14_AX-9" value="" style="endArrow=classic;startArrow=classic;html=1;rounded=0;entryX=0.5;entryY=1;entryDx=0;entryDy=0;" edge="1" parent="1" source="8J4eURQ9qsnAdOyGuVqm-9" target="8J4eURQ9qsnAdOyGuVqm-7">
          <mxGeometry width="50" height="50" relative="1" as="geometry">
            <mxPoint x="485" y="380" as="sourcePoint" />
            <mxPoint x="535" y="330" as="targetPoint" />
          </mxGeometry>
        </mxCell>
        <mxCell id="ddsroKh8XXSdmjw14_AX-10" value="grpc" style="text;html=1;align=center;verticalAlign=middle;whiteSpace=wrap;rounded=0;" vertex="1" parent="1">
          <mxGeometry x="450" y="330" width="60" height="30" as="geometry" />
        </mxCell>
        <mxCell id="ddsroKh8XXSdmjw14_AX-13" value="" style="endArrow=classic;startArrow=classic;html=1;rounded=0;entryX=0.5;entryY=1;entryDx=0;entryDy=0;" edge="1" parent="1">
          <mxGeometry width="50" height="50" relative="1" as="geometry">
            <mxPoint x="510" y="450" as="sourcePoint" />
            <mxPoint x="510" y="410" as="targetPoint" />
          </mxGeometry>
        </mxCell>
        <mxCell id="ddsroKh8XXSdmjw14_AX-14" value="grpc" style="text;html=1;align=center;verticalAlign=middle;whiteSpace=wrap;rounded=0;" vertex="1" parent="1">
          <mxGeometry x="450" y="410" width="60" height="30" as="geometry" />
        </mxCell>
        <mxCell id="ddsroKh8XXSdmjw14_AX-15" value="" style="endArrow=classic;startArrow=classic;html=1;rounded=0;entryX=0.5;entryY=1;entryDx=0;entryDy=0;exitX=0.5;exitY=0;exitDx=0;exitDy=0;" edge="1" parent="1" source="8J4eURQ9qsnAdOyGuVqm-10" target="8J4eURQ9qsnAdOyGuVqm-8">
          <mxGeometry width="50" height="50" relative="1" as="geometry">
            <mxPoint x="509" y="520" as="sourcePoint" />
            <mxPoint x="509" y="480" as="targetPoint" />
          </mxGeometry>
        </mxCell>
        <mxCell id="ddsroKh8XXSdmjw14_AX-16" value="grpc&lt;div&gt;http&lt;/div&gt;" style="text;html=1;align=center;verticalAlign=middle;whiteSpace=wrap;rounded=0;" vertex="1" parent="1">
          <mxGeometry x="440" y="490" width="60" height="30" as="geometry" />
        </mxCell>
        <mxCell id="ddsroKh8XXSdmjw14_AX-21" value="&lt;div style=&quot;orphans: 4; text-align: start;&quot;&gt;&lt;font face=&quot;Open Sans, Clear Sans, Helvetica Neue, Helvetica, Arial, Segoe UI Emoji, sans-serif&quot; color=&quot;#333333&quot;&gt;&lt;span style=&quot;font-size: 16px; white-space-collapse: preserve; background-color: rgb(255, 255, 255);&quot;&gt;数据库&lt;/span&gt;&lt;/font&gt;&lt;/div&gt;" style="rounded=0;whiteSpace=wrap;html=1;" vertex="1" parent="1">
          <mxGeometry x="700" y="410" width="120" height="40" as="geometry" />
        </mxCell>
        <mxCell id="ddsroKh8XXSdmjw14_AX-27" value="读取配置" style="text;html=1;align=center;verticalAlign=middle;resizable=0;points=[];autosize=1;strokeColor=none;fillColor=none;" vertex="1" parent="1">
          <mxGeometry x="525" y="218" width="70" height="30" as="geometry" />
        </mxCell>
      </root>
    </mxGraphModel>
  </diagram>
</mxfile>
